Coordinates
version=1
nRows=9
nColumns=63
inDegrees=yes

Units are S.I. units (second, meters, Newtons, ...)
If the header above contains a line with 'inDegrees', this indicates whether rotational values are in degrees (yes) or radians (no).

endheader
time	pelvis_tilt	pelvis_list	pelvis_rotation	pelvis_tx	pelvis_ty	pelvis_tz	hip_flexion_r	hip_adduction_r	hip_rotation_r	knee_angle_r	knee_angle_r_beta	ankle_angle_r	subtalar_angle_r	mtp_angle_r	hip_flexion_l	hip_adduction_l	hip_rotation_l	knee_angle_l	knee_angle_l_beta	ankle_angle_l	subtalar_angle_l	mtp_angle_l	L5_S1_Flex_Ext	L5_S1_Lat_Bending	L5_S1_axial_rotation	L4_L5_Flex_Ext	L4_L5_Lat_Bending	L4_L5_axial_rotation	L3_L4_Flex_Ext	L3_L4_Lat_Bending	L3_L4_axial_rotation	L2_L3_Flex_Ext	L2_L3_Lat_Bending	L2_L3_axial_rotation	L1_L2_Flex_Ext	L1_L2_Lat_Bending	L1_L2_axial_rotation	L1_T12_Flex_Ext	L1_T12_Lat_Bending	L1_T12_axial_rotation	Abs_r3	Abs_r2	Abs_r1	Abs_t1	Abs_t2	neck_flexion	neck_bending	neck_rotation	arm_flex_r	arm_add_r	arm_rot_r	elbow_flex_r	pro_sup_r	wrist_flex_r	wrist_dev_r	arm_flex_l	arm_add_l	arm_rot_l	elbow_flex_l	pro_sup_l	wrist_flex_l	wrist_dev_l
7.100000	-1.643396	-3.757032	89.683547	0.169062	0.468085	1.074644	8.367118	-3.497263	-10.626973	16.670771	0.290960	36.817944	11.391328	0.000000	4.772569	1.957315	12.645265	7.498045	0.130866	25.342403	-16.372683	0.000000	-0.023047	-0.168417	2.482371	-0.042800	-0.223995	2.637519	-0.037864	-0.409490	2.637519	-0.026340	-0.409490	2.172075	-0.021401	-0.343437	2.016927	-0.013169	-0.260879	1.861778	-0.164621	-1.905171	13.806203	0.000000	0.000000	23.650785	1.091489	-4.764175	2.449103	-12.128672	26.137132	53.441955	66.087162	14.107084	11.597059	22.506416	-5.195815	62.765092	46.853467	72.266652	25.271433	25.261481
7.116667	-1.611389	-3.747307	89.719901	0.169031	0.468176	1.074618	8.397962	-3.464376	-10.560554	16.770598	0.292702	36.792051	11.227651	0.000000	4.748541	1.936050	12.583839	7.527512	0.131380	25.071071	-16.607715	0.000000	-0.021707	-0.164641	2.478939	-0.040313	-0.218973	2.633872	-0.035663	-0.400308	2.633872	-0.024809	-0.400308	2.169071	-0.020157	-0.335736	2.014138	-0.012404	-0.255029	1.859204	-0.155054	-1.862453	13.787113	0.000000	0.000000	23.665643	1.199833	-4.760878	2.389294	-12.147286	25.983969	53.634772	66.376020	14.176711	11.577082	22.498212	-5.230056	62.582313	46.842993	73.539904	25.981579	24.514124
7.133333	-1.591285	-3.739982	89.766339	0.169004	0.468294	1.074614	8.441637	-3.444648	-10.486707	16.891990	0.294821	36.785497	11.044784	0.000000	4.773499	1.924460	12.401481	7.642602	0.133389	24.882496	-16.631645	0.000000	-0.020432	-0.162777	2.473814	-0.037945	-0.216493	2.628428	-0.033569	-0.395776	2.628428	-0.023352	-0.395776	2.164588	-0.018974	-0.331935	2.009974	-0.011675	-0.252142	1.855361	-0.145947	-1.841366	13.758614	0.000000	0.000000	23.675608	1.316018	-4.775752	2.345246	-12.156933	25.811691	53.794785	67.052032	14.316611	11.367199	22.444275	-5.292683	62.435775	46.897553	74.348241	26.221939	23.867601
7.150000	-1.574838	-3.732325	89.814418	0.169003	0.468437	1.074641	8.496718	-3.417177	-10.333096	17.029356	0.297218	36.783765	10.751127	0.000000	4.844819	1.899653	11.953003	7.843462	0.136894	24.836434	-16.235704	0.000000	-0.019907	-0.161903	2.466930	-0.036970	-0.215331	2.621113	-0.032706	-0.393652	2.621113	-0.022752	-0.393652	2.158564	-0.018486	-0.330153	2.004381	-0.011375	-0.250788	1.850198	-0.142197	-1.831483	13.720326	0.000000	0.000000	23.672716	1.424308	-4.790603	2.333120	-12.168060	25.692474	53.922632	67.641521	14.483457	11.171184	22.370011	-5.375692	62.326811	46.989319	74.852683	26.153565	23.273662
7.166667	-1.556048	-3.718980	89.867108	0.169039	0.468612	1.074670	8.537230	-3.375418	-10.135178	17.143889	0.299217	36.781579	10.390479	0.000000	4.949992	1.853663	11.258499	8.121427	0.141746	24.944781	-15.414432	0.000000	-0.020775	-0.161353	2.456907	-0.038582	-0.214599	2.610464	-0.034132	-0.392314	2.610464	-0.023744	-0.392314	2.149794	-0.019292	-0.329031	1.996237	-0.011871	-0.249936	1.842680	-0.148396	-1.825257	13.664580	0.000000	0.000000	23.655430	1.510587	-4.797593	2.350023	-12.182843	25.648050	54.021164	68.074565	14.647744	11.001901	22.293079	-5.485070	62.288241	47.124321	75.033468	25.792164	22.750035
7.183333	-1.546305	-3.710341	89.924956	0.169052	0.468797	1.074686	8.588458	-3.350347	-9.964434	17.275830	0.301520	36.807188	10.079825	0.000000	5.067785	1.838641	10.813491	8.416331	0.146893	24.980597	-14.931300	0.000000	-0.021295	-0.162008	2.446895	-0.039548	-0.215471	2.599826	-0.034986	-0.393907	2.599826	-0.024338	-0.393907	2.141033	-0.019775	-0.330368	1.988102	-0.012168	-0.250951	1.835171	-0.152111	-1.832672	13.608897	0.000000	0.000000	23.617459	1.547497	-4.827043	2.359653	-12.189371	25.583731	54.100633	68.580526	14.839783	10.821540	22.236104	-5.593040	62.315939	47.245298	75.107621	25.429736	22.243353
7.200000	-1.548311	-3.714607	89.974603	0.169092	0.468969	1.074728	8.658286	-3.332898	-9.768840	17.409867	0.303859	36.839495	9.741293	0.000000	5.222922	1.834196	10.349629	8.756875	0.152836	25.076760	-14.401337	0.000000	-0.021049	-0.164474	2.438653	-0.039089	-0.218750	2.591069	-0.034581	-0.399902	2.591069	-0.024057	-0.399902	2.133822	-0.019546	-0.335395	1.981406	-0.012027	-0.254770	1.828990	-0.150349	-1.860561	13.563059	0.000000	0.000000	23.562497	1.503085	-4.882759	2.365157	-12.169611	25.456266	54.177648	68.972017	15.106739	10.891370	22.204876	-5.715935	62.426717	47.395457	75.078063	24.917272	21.786218
7.216667	-1.552618	-3.719934	90.028503	0.169134	0.469156	1.074768	8.717071	-3.317756	-9.599928	17.518031	0.305747	36.857605	9.431092	0.000000	5.384833	1.833715	9.944943	9.103525	0.158886	25.191522	-13.912320	0.000000	-0.021345	-0.167375	2.430981	-0.039640	-0.222609	2.582918	-0.035068	-0.406956	2.582918	-0.024396	-0.406956	2.127109	-0.019821	-0.341312	1.975172	-0.012197	-0.259264	1.823236	-0.152467	-1.893383	13.520388	0.000000	0.000000	23.496777	1.401232	-4.947499	2.357044	-12.137354	25.310944	54.244252	69.307444	15.342514	10.986235	22.199852	-5.830797	62.581610	47.517579	75.111024	24.480797	21.268598
7.233333	-1.566364	-3.721954	90.078271	0.169190	0.469368	1.074787	8.755855	-3.315281	-9.477592	17.593393	0.307063	36.860076	9.195986	0.000000	5.541095	1.840014	9.547819	9.437402	0.164714	25.338370	-13.397062	0.000000	-0.021802	-0.171835	2.424632	-0.040488	-0.228540	2.576171	-0.035818	-0.417799	2.576171	-0.024917	-0.417799	2.121553	-0.020245	-0.350405	1.970013	-0.012458	-0.266172	1.818474	-0.155728	-1.943829	13.485074	0.000000	0.000000	23.408716	1.273243	-5.031679	2.353960	-12.109233	25.266084	54.270718	69.519507	15.437351	10.931084	22.218455	-5.940491	62.786542	47.599501	75.114965	24.143320	20.741608
